<?xml version="1.0" encoding="UTF-8"?>
<!DOCTYPE svg PUBLIC "-//W3C//DTD SVG 1.1//EN" "http://www.w3.org/Graphics/SVG/1.1/DTD/svg11.dtd">
<!-- Creator: CorelDRAW -->
<svg xmlns="http://www.w3.org/2000/svg" xml:space="preserve" width="8.5in" height="11in" style="shape-rendering:geometricPrecision; text-rendering:geometricPrecision; image-rendering:optimizeQuality; fill-rule:evenodd; clip-rule:evenodd"
viewBox="0 0 8.5 11"
 xmlns:xlink="http://www.w3.org/1999/xlink">
 <defs>
  <style type="text/css">
   <![CDATA[
    .fil0 {fill:#4CAF50}
    .fil1 {fill:#EFF3EF}
   ]]>
  </style>
 </defs>
 <g id="Layer_x0020_1">
  <metadata id="CorelCorpID_0Corel-Layer"/>
  <g id="_249441576">
   <path id="_249441480" class="fil0" d="M4.12792 1.74157l0.39002 -0.00374803 0.00237402 0.590319 0.886961 0.400189c0.183949,0.219504 0.309173,0.619642 0.291811,0.97615l-0.782472 0.00485827 -0.371094 -0.664512c-0.332276,-0.0947992 -0.566362,0.120287 -0.605488,0.397394 -0.0487598,0.345339 0.102087,0.50187 0.385815,0.639854 0.252823,0.122953 0.411094,0.174496 0.697453,0.32663 0.128839,0.0684488 0.346823,0.240098 0.434843,0.349161 0.434744,0.538665 0.395543,1.82595 -0.938043,1.91338l0.000129921 0.575988 -0.392413 0.00339764 7.48031e-005 -0.579602 -0.874815 -0.424264c-0.0913386,-0.113425 -0.176618,-0.241681 -0.230677,-0.418504 -0.0475394,-0.155492 -0.0823386,-0.365114 -0.0735827,-0.54498l0.782476 -0.00374409 0.346598 0.687945c0.134571,0.128031 1.00015,0.0689764 0.78715,-0.65102 -0.0745827,-0.252102 -0.348028,-0.363287 -0.569094,-0.453098 -0.20661,-0.0839409 -0.606697,-0.321709 -0.777583,-0.467693 -0.269496,-0.230224 -0.40522,-0.56398 -0.373815,-0.976972 0.0442992,-0.582559 0.385161,-1.06559 0.983118,-1.08517l0.000255906 -0.591957zm-0.0522087 -0.977933c-0.671744,0.0551024 -1.24256,0.240228 -1.75239,0.570035 -0.205528,0.132953 -0.356866,0.257374 -0.532992,0.404909l-0.236508 0.241169c-0.132524,0.177969 -0.231602,0.264811 -0.397677,0.522874 -0.12174,0.189169 -0.223157,0.402866 -0.313091,0.625878 -0.442232,1.09659 -0.304902,2.37558 0.319878,3.36676 0.0357047,0.0566417 0.247827,0.354571 0.295512,0.404146 0.0364488,0.0378858 0.0243701,0.0166102 0.0580197,0.0603898 0.17863,0.232378 0.571705,0.543953 0.817642,0.70074 1.07657,0.686303 2.55844,0.768587 3.69964,0.163177 0.259685,-0.13776 0.608535,-0.374862 0.825323,-0.573472l0.236087 -0.240756c0.0398937,-0.0506142 0.0615551,-0.070126 0.103146,-0.118217 0.586402,-0.678051 0.926732,-1.72672 0.856067,-2.64735 -0.0655394,-0.853811 -0.31485,-1.40682 -0.76739,-2.03059 -0.0280394,-0.0386496 -0.0660945,-0.0905906 -0.0975906,-0.12461l-0.109854 -0.12876 -0.358594 -0.339957c-0.23689,-0.215228 -0.73411,-0.492228 -1.0317,-0.606843 -0.480051,-0.18489 -1.04361,-0.29628 -1.61352,-0.249524z"/>
   <path id="_249441384" class="fil1" d="M4.12766 2.33353c-0.597957,0.0195866 -0.938819,0.502614 -0.983118,1.08517 -0.0314055,0.412992 0.104319,0.746748 0.373815,0.976972 0.170886,0.145984 0.570972,0.383752 0.777583,0.467693 0.221067,0.089811 0.494512,0.200996 0.569094,0.453098 0.213,0.719996 -0.652579,0.779051 -0.78715,0.65102l-0.346598 -0.687945 -0.782476 0.00374409c-0.00875591,0.179866 0.0260433,0.389488 0.0735827,0.54498 0.0540591,0.176823 0.139339,0.305079 0.230677,0.418504l0.874815 0.424264 -7.48031e-005 0.579602 0.392413 -0.00339764 -0.000129921 -0.575988c1.33359,-0.0874331 1.37279,-1.37472 0.938043,-1.91338 -0.0880197,-0.109063 -0.306004,-0.280713 -0.434843,-0.349161 -0.286358,-0.152134 -0.44463,-0.203677 -0.697453,-0.32663 -0.283728,-0.137984 -0.434575,-0.294516 -0.385815,-0.639854 0.039126,-0.277106 0.273213,-0.492193 0.605488,-0.397394l0.371094 0.664512 0.782472 -0.00485827c0.0173622,-0.356508 -0.107862,-0.756646 -0.291811,-0.97615l-0.886961 -0.400189 -0.00237402 -0.590319 -0.39002 0.00374803 -0.000255906 0.591957z"/>
  </g>
 </g>
</svg>
