<?xml version="1.0" encoding="UTF-8"?>
<!DOCTYPE svg PUBLIC "-//W3C//DTD SVG 1.1//EN" "http://www.w3.org/Graphics/SVG/1.1/DTD/svg11.dtd">
<!-- Creator: CorelDRAW -->
<svg xmlns="http://www.w3.org/2000/svg" xml:space="preserve" width="8.5in" height="11in" style="shape-rendering:geometricPrecision; text-rendering:geometricPrecision; image-rendering:optimizeQuality; fill-rule:evenodd; clip-rule:evenodd"
viewBox="0 0 8.5 11"
 xmlns:xlink="http://www.w3.org/1999/xlink">
 <defs>
  <style type="text/css">
   <![CDATA[
    .fil1 {fill:black}
    .fil0 {fill:#FEDCCC}
   ]]>
  </style>
 </defs>
 <g id="Layer_x0020_1">
  <metadata id="CorelCorpID_0Corel-Layer"/>
  <g id="_247088640">
   <path id="_247088424" class="fil0" d="M6.61904 6.3752c0.107535,-0.0284843 0.190819,0.044315 0.203579,0.13935 0.00914567,0.0681102 0.00238583,0.592024 0.00274016,0.708339 0.000976378,0.319366 -0.299917,0.278827 -0.329382,0.0854803 -0.00991732,-0.0651063 -0.00268898,-0.593319 -0.00312598,-0.706921 -0.000456693,-0.119004 0.0167638,-0.19726 0.126189,-0.226248zm-0.996661 -0.328787c0.0644488,-0.0259567 0.136398,-0.00479134 0.171827,0.0302087 0.0447677,0.0442205 0.052622,0.0929094 0.0529094,0.165177l-0.000161417 0.874268c0,0.142799 0.0195079,0.278177 -0.105673,0.326988 -0.137795,0.0537323 -0.225472,-0.0564528 -0.226681,-0.190622l0.000204724 -0.874244c3.93701e-006,-0.153551 -0.0259409,-0.278 0.107575,-0.331776zm-1.72655 -4.62543c-0.59313,0.133173 -0.51178,0.84489 -0.51178,1.27752l0 2.99035c0,0.0650276 0.0119291,0.22702 -0.0145276,0.274567 -0.0403622,0.0725394 -0.131531,0.0658661 -0.197496,0.00724803 -0.055811,-0.0495945 -0.0342992,-0.178732 -0.0342992,-0.262398 -3.93701e-006,-0.289047 0.034874,-0.173331 -0.213272,-0.383591 -0.185193,-0.156921 -0.51024,-0.404795 -0.655677,-0.53828 -0.138173,-0.126823 -0.406,-0.310256 -0.622929,-0.263571 -0.336047,0.0723189 -0.243732,0.592988 -0.126004,0.857228 0.155102,0.348138 0.301488,0.466358 0.471413,0.722724l0.478949 0.715492c0.227244,0.345949 0.466197,0.73213 0.695705,1.09041 0.115244,0.179898 0.169248,0.225409 0.198862,0.403795 0.0295157,0.177807 0.056811,0.308984 0.134638,0.457094 0.0758622,0.144366 0.174445,0.210748 0.391252,0.210673l1.78644 0.000854331c0.571063,-0.00139764 0.958512,0.0809882 1.32733,-0.479421 0.15272,-0.232063 0.297421,-0.498736 0.432984,-0.761402 0.303374,-0.587807 0.323984,-0.828906 0.304752,-1.47893 -0.0147874,-0.499807 0.0313661,-1.20234 -0.126453,-1.66647 -0.0316811,-0.0931772 -0.0455276,-0.12326 -0.134118,-0.157087 -0.0810236,-0.0309409 -0.136823,-0.0576969 -0.231815,-0.0685236 -0.0646378,-0.0073622 -0.229098,-0.0193071 -0.289567,-0.00806693 -0.0792835,0.0147323 -0.0566693,0.132547 -0.0570591,0.240248 -0.000232283,0.0636811 -0.0265551,0.816941 -0.0396811,0.856528 -0.0281457,0.0849213 -0.123457,0.0790906 -0.194402,0.0253976 -0.062378,-0.0472087 -0.0437638,-0.155799 -0.0401496,-0.25087 0.0132874,-0.349224 0.0899134,-1.04022 -0.0970512,-1.34034 -0.0905906,-0.145421 -0.23637,-0.144433 -0.439902,-0.158398 -0.284413,-0.0195157 -0.199976,0.0633386 -0.204543,0.362819 -0.00293701,0.192882 -0.0179449,0.380657 -0.0263622,0.572323 -0.00366535,0.0835433 0.0134764,0.206469 -0.024374,0.266315 -0.0434094,0.0686496 -0.162681,0.0458622 -0.204831,-0.00696063 -0.0931535,-0.116744 0.150992,-1.23827 -0.141307,-1.59659 -0.132327,-0.162209 -0.208441,-0.13289 -0.454248,-0.138673 -0.209787,-0.00493307 -0.17461,-0.0106693 -0.17461,0.42785 0,0.197409 -0.000137795,0.394835 0.000137795,0.592244 0.000133858,0.0964016 0.00806299,0.202079 -0.0889409,0.211772 -0.0476024,0.00475591 -0.155413,-0.024315 -0.156709,-0.143331 -0.00432283,-0.397063 0.000370079,-0.797244 0.000370079,-1.19468 0,-0.295528 0.0311969,-0.906717 -0.0351575,-1.15683 -0.0885669,-0.333854 -0.363969,-0.581256 -0.685575,-0.509047z"/>
   <path id="_247088664" class="fil1" d="M3.89582 1.42098c0.321606,-0.0722087 0.597008,0.175193 0.685575,0.509047 0.0663543,0.250114 0.0351575,0.861303 0.0351575,1.15683 0,0.397433 -0.00469291,0.797614 -0.000370079,1.19468 0.00129528,0.119016 0.109106,0.148087 0.156709,0.143331 0.0970039,-0.00969291 0.0890748,-0.11537 0.0889409,-0.211772 -0.000275591,-0.197409 -0.000137795,-0.394835 -0.000137795,-0.592244 0,-0.43852 -0.0351772,-0.432783 0.17461,-0.42785 0.245807,0.00578346 0.321921,-0.0235354 0.454248,0.138673 0.292299,0.358323 0.0481535,1.47985 0.141307,1.59659 0.0421496,0.0528228 0.161421,0.0756102 0.204831,0.00696063 0.0378504,-0.0598465 0.0207087,-0.182772 0.024374,-0.266315 0.00841732,-0.191665 0.0234252,-0.379441 0.0263622,-0.572323 0.00456693,-0.29948 -0.0798701,-0.382335 0.204543,-0.362819 0.203531,0.0139646 0.349311,0.0129764 0.439902,0.158398 0.186965,0.300122 0.110339,0.991114 0.0970512,1.34034 -0.00361417,0.0950709 -0.0222283,0.203661 0.0401496,0.25087 0.0709449,0.0536929 0.166256,0.0595236 0.194402,-0.0253976 0.013126,-0.0395866 0.0394488,-0.792846 0.0396811,-0.856528 0.000389764,-0.107701 -0.0222244,-0.225516 0.0570591,-0.240248 0.0604685,-0.0112402 0.224929,0.000704724 0.289567,0.00806693 0.0949921,0.0108268 0.150791,0.0375827 0.231815,0.0685236 0.0885906,0.0338268 0.102437,0.0639094 0.134118,0.157087 0.157819,0.464126 0.111665,1.16666 0.126453,1.66647 0.0192323,0.65002 -0.00137795,0.891118 -0.304752,1.47893 -0.135563,0.262665 -0.280264,0.529339 -0.432984,0.761402 -0.368819,0.560409 -0.756268,0.478024 -1.32733,0.479421l-1.78644 -0.000854331c-0.216807,7.48031e-005 -0.31539,-0.0663071 -0.391252,-0.210673 -0.0778268,-0.14811 -0.105122,-0.279287 -0.134638,-0.457094 -0.0296142,-0.178386 -0.0836181,-0.223898 -0.198862,-0.403795 -0.229508,-0.358276 -0.468461,-0.744457 -0.695705,-1.09041l-0.478949 -0.715492c-0.169925,-0.256366 -0.316311,-0.374587 -0.471413,-0.722724 -0.117728,-0.26424 -0.210043,-0.784909 0.126004,-0.857228 0.216929,-0.046685 0.484756,0.136748 0.622929,0.263571 0.145437,0.133484 0.470484,0.381358 0.655677,0.53828 0.248146,0.21026 0.213268,0.0945433 0.213272,0.383591 0,0.0836654 -0.0215118,0.212803 0.0342992,0.262398 0.0659646,0.0586181 0.157134,0.0652913 0.197496,-0.00724803 0.0264567,-0.0475472 0.0145276,-0.209539 0.0145276,-0.274567l0 -2.99035c0,-0.432634 -0.0813504,-1.14435 0.51178,-1.27752zm-2.80133 3.32372l0 0.361732c0.0279055,0.059626 0.0301811,0.262315 0.228638,0.606307 0.108657,0.188343 0.220138,0.338488 0.333236,0.511539l1.34074 2.02819c0.0458898,0.0687717 0.0347835,0.0596417 0.0505709,0.153524 0.00974016,0.0579134 0.0241063,0.117673 0.0379252,0.175858 0.0607362,0.255724 0.185961,0.515228 0.411929,0.645752 0.0425118,0.0245551 0.116673,0.0429921 0.148469,0.0632677l2.79322 0c0.0649567,-0.035437 0.363587,-0.0698268 0.627634,-0.348252 0.18702,-0.197205 0.258945,-0.335213 0.401134,-0.579524 0.227764,-0.391335 0.413465,-0.735799 0.530213,-1.17802 0.0126378,-0.0478858 0.0314409,-0.169031 0.047878,-0.203685l0 -1.86874c-0.0410079,-0.104823 2.75591e-005,-0.447098 -0.279709,-0.823465 -0.185425,-0.24948 -0.533031,-0.284791 -0.836626,-0.250925 -0.070248,-0.186413 -0.0916181,-0.30274 -0.207772,-0.43328 -0.167567,-0.188323 -0.552425,-0.245634 -0.824319,-0.165571l-0.302319 -0.464768c-0.216768,-0.134984 -0.376957,-0.100453 -0.653571,-0.103803l-0.0227008 -0.929c-0.0435315,-0.273283 -0.185307,-0.496244 -0.328547,-0.623252 -0.195705,-0.173524 -0.440406,-0.263437 -0.71187,-0.223874 -0.545398,0.0794843 -0.806551,0.563665 -0.819177,1.06941 -0.00784252,0.314268 -0.00118898,0.636705 -0.00118898,0.951858 0,0.317157 0,0.634319 0,0.951472 0,0.297264 0.0172756,0.649752 -0.00166535,0.940217l-0.232587 -0.184283c-0.0444724,-0.0376457 -0.0769803,-0.0618228 -0.117736,-0.0959173l-0.34065 -0.280657c-0.0696535,-0.0580079 -0.156193,-0.113835 -0.255276,-0.162252 -0.204091,-0.0997244 -0.468193,-0.134283 -0.683146,-0.0298425 -0.094563,0.0459488 -0.168949,0.12311 -0.218898,0.198469 -0.0283031,0.0427047 -0.0499291,0.0836969 -0.0686378,0.135138 -0.0169606,0.0466378 -0.024748,0.116791 -0.0451929,0.15637z"/>
   <path id="_247088376" class="fil1" d="M5.62237 6.04641c-0.133516,0.0537756 -0.107571,0.178224 -0.107575,0.331776l-0.000204724 0.874244c0.00120866,0.134169 0.0888858,0.244354 0.226681,0.190622 0.125181,-0.048811 0.105673,-0.184189 0.105673,-0.326988l0.000161417 -0.874268c-0.000287402,-0.0722677 -0.00814173,-0.120957 -0.0529094,-0.165177 -0.0354291,-0.035 -0.107378,-0.0561654 -0.171827,-0.0302087z"/>
   <path id="_247087992" class="fil1" d="M6.61904 6.3752c-0.109425,0.0289882 -0.126646,0.107244 -0.126189,0.226248 0.000437008,0.113602 -0.00679134,0.641815 0.00312598,0.706921 0.0294646,0.193346 0.330358,0.233886 0.329382,-0.0854803 -0.000354331,-0.116315 0.00640551,-0.640228 -0.00274016,-0.708339 -0.0127598,-0.0950354 -0.0960433,-0.167835 -0.203579,-0.13935z"/>
  </g>
 </g>
</svg>
