<?xml version="1.0" standalone="no"?>
<!DOCTYPE svg PUBLIC "-//W3C//DTD SVG 20010904//EN"
 "http://www.w3.org/TR/2001/REC-SVG-20010904/DTD/svg10.dtd">
<svg version="1.0" xmlns="http://www.w3.org/2000/svg"
 width="300.000000pt" height="299.000000pt" viewBox="0 0 300.000000 299.000000"
 preserveAspectRatio="xMidYMid meet">
<metadata>
Created by potrace 1.10, written by Peter Selinger 2001-2011
</metadata>
<g transform="translate(0.000000,299.000000) scale(0.100000,-0.100000)"
fill="#000000" stroke="none">
<path d="M692 2303 c30 -43 182 -264 337 -491 248 -363 281 -415 269 -430 -23
-29 -610 -716 -636 -745 l-26 -27 75 0 74 0 70 83 c170 200 519 602 524 604 3
1 50 -65 104 -145 54 -81 132 -196 174 -257 42 -60 103 -149 135 -198 l60 -87
254 0 c200 0 254 3 248 12 -13 21 -551 805 -626 911 l-68 99 177 206 c98 114
236 275 307 357 71 83 136 158 144 168 14 16 11 17 -59 17 l-74 -1 -275 -323
c-151 -179 -278 -324 -282 -323 -4 1 -90 124 -191 272 -102 149 -202 294 -222
323 l-36 52 -255 0 -256 0 54 -77z m454 10 c13 -14 34 -43 46 -62 12 -20 27
-41 33 -47 5 -7 44 -62 85 -124 41 -62 91 -134 110 -161 19 -27 47 -69 62 -92
15 -24 45 -64 68 -89 40 -46 41 -47 68 -31 25 15 103 100 165 181 15 19 27 32
27 27 0 -5 8 2 17 15 19 29 98 124 158 190 22 25 63 72 90 104 70 83 103 116
115 116 22 0 7 -28 -48 -91 -31 -36 -82 -94 -112 -129 -30 -35 -74 -84 -97
-109 -24 -24 -45 -53 -49 -63 -3 -10 -9 -18 -13 -18 -4 0 -32 -30 -62 -67 -29
-36 -70 -83 -89 -104 -88 -95 -96 -110 -79 -152 11 -29 113 -184 128 -197 3
-3 11 -13 16 -22 6 -10 40 -61 77 -115 37 -54 102 -150 145 -213 43 -63 100
-145 126 -182 119 -171 137 -199 137 -213 0 -13 -29 -15 -199 -15 l-199 0 -31
39 c-17 21 -31 42 -31 45 0 9 -43 70 -52 74 -5 2 -8 8 -8 14 0 5 -21 39 -47
76 -27 36 -55 76 -63 88 -194 292 -239 348 -269 336 -24 -9 -76 -57 -118 -108
-17 -22 -42 -50 -55 -64 -12 -13 -36 -40 -51 -60 -16 -19 -45 -53 -65 -75 -21
-22 -57 -65 -82 -95 -53 -65 -89 -108 -110 -130 -8 -8 -39 -44 -68 -78 -30
-34 -60 -62 -68 -62 -8 0 -14 2 -14 5 0 7 32 58 41 65 3 3 50 57 104 120 118
139 173 204 200 234 30 34 114 132 186 216 37 43 65 86 67 102 3 26 -7 43
-148 253 -19 28 -45 63 -58 79 -13 17 -28 40 -33 53 -5 13 -13 23 -19 23 -5 0
-10 5 -10 10 0 12 -68 112 -82 121 -6 3 -8 8 -7 10 4 5 -61 102 -75 111 -7 5
-7 8 -1 8 6 0 6 3 -1 8 -6 4 -49 64 -97 134 -57 83 -83 128 -75 131 7 3 98 6
201 6 l188 1 25 -27z"/>
<path d="M864 2299 c-42 -15 -48 -35 -25 -79 12 -23 26 -47 32 -53 5 -7 28
-39 49 -72 21 -34 50 -73 63 -87 14 -15 22 -29 19 -32 -3 -3 0 -6 7 -6 7 0 10
-4 6 -9 -3 -5 -1 -12 4 -16 13 -8 101 -134 101 -145 0 -4 4 -10 8 -12 4 -1 57
-74 117 -161 61 -87 126 -180 145 -207 19 -26 55 -78 80 -115 25 -37 50 -72
55 -78 6 -7 35 -48 65 -92 30 -44 71 -103 90 -131 19 -28 67 -98 107 -155 39
-57 86 -117 103 -134 30 -29 36 -30 125 -32 169 -4 195 25 121 134 -82 121
-218 317 -243 348 -4 6 -25 37 -47 69 -21 33 -42 64 -47 70 -30 37 -79 107
-79 112 0 3 -13 23 -28 43 -16 20 -60 81 -97 136 -38 55 -74 103 -79 107 -7 5
-7 8 -1 8 6 0 5 4 -1 8 -12 7 -129 173 -205 290 -22 34 -44 62 -47 62 -4 0
-13 12 -19 28 -23 50 -132 187 -160 199 -30 13 -186 15 -219 2z m317 -176 c57
-82 200 -287 319 -458 119 -170 294 -422 390 -560 95 -137 195 -280 222 -317
l48 -68 -118 0 -118 0 -75 107 c-41 60 -185 266 -319 458 -513 736 -680 977
-680 981 0 2 52 4 115 4 l114 0 102 -147z"/>
</g>
</svg>
