<?xml version="1.0" standalone="no"?>
<!DOCTYPE svg PUBLIC "-//W3C//DTD SVG 20010904//EN"
 "http://www.w3.org/TR/2001/REC-SVG-20010904/DTD/svg10.dtd">
<svg version="1.0" xmlns="http://www.w3.org/2000/svg"
 width="300.000000pt" height="293.000000pt" viewBox="0 0 300.000000 293.000000"
 preserveAspectRatio="xMidYMid meet">
<metadata>
Created by potrace 1.10, written by Peter Selinger 2001-2011
</metadata>
<g transform="translate(0.000000,293.000000) scale(0.100000,-0.100000)"
fill="#000000" stroke="none">
<path d="M190 2849 c0 -4 6 -11 13 -17 7 -6 58 -77 112 -157 55 -80 129 -188
165 -240 36 -51 90 -131 122 -177 273 -402 600 -878 618 -901 12 -15 19 -33
17 -40 -6 -13 -128 -156 -542 -637 -148 -172 -299 -347 -333 -389 -70 -83
-111 -131 -150 -173 l-26 -28 115 0 115 0 75 87 c42 49 135 158 209 243 73 85
147 171 164 190 17 19 112 129 211 245 99 116 189 221 201 235 12 14 33 38 46
54 l24 29 95 -140 c52 -76 218 -320 369 -541 l275 -402 398 0 c218 0 397 3
397 7 0 3 -7 14 -16 24 -8 9 -69 95 -134 191 -392 572 -473 691 -546 796 -256
371 -387 566 -388 577 0 7 141 179 315 382 174 202 390 454 480 558 90 105
171 196 181 203 10 7 18 16 18 20 0 4 -52 7 -116 5 l-115 -2 -256 -298 c-280
-326 -302 -352 -454 -528 -57 -66 -116 -136 -131 -155 -17 -22 -31 -31 -36
-25 -5 6 -74 105 -152 220 -79 116 -202 296 -274 400 -72 105 -160 234 -197
288 l-67 97 -401 3 c-220 1 -401 -1 -401 -4z m789 -55 c16 -13 40 -47 54 -76
15 -29 27 -48 27 -43 1 6 8 -2 16 -17 8 -16 19 -28 24 -28 6 0 10 -5 10 -12 0
-6 11 -26 25 -44 14 -18 25 -35 25 -39 0 -3 23 -35 50 -70 28 -35 50 -68 50
-73 0 -5 9 -17 20 -27 11 -10 20 -24 20 -32 0 -7 7 -16 15 -19 8 -4 13 -10 10
-14 -2 -4 4 -15 15 -25 11 -10 20 -22 20 -26 0 -4 38 -62 85 -128 47 -67 85
-126 85 -131 0 -6 4 -10 8 -10 4 0 28 -30 52 -67 72 -110 86 -118 136 -83 19
13 132 142 174 198 51 67 84 101 93 95 6 -3 7 -1 3 5 -3 6 2 15 11 21 10 6 14
11 9 11 -5 0 2 11 15 23 27 26 87 96 176 202 32 38 75 87 95 108 21 22 38 43
38 47 0 5 27 36 60 70 33 34 60 64 60 66 0 7 44 57 86 99 38 37 45 40 88 37
47 -4 63 -23 30 -36 -9 -4 -14 -9 -11 -12 3 -4 -6 -20 -21 -36 -15 -16 -37
-40 -49 -54 -12 -13 -20 -24 -16 -24 3 0 -8 -12 -23 -27 -16 -16 -52 -55 -79
-87 -28 -33 -57 -66 -66 -75 -14 -15 -96 -111 -144 -170 -11 -13 -38 -44 -61
-68 -23 -23 -40 -43 -38 -43 3 0 -7 -12 -20 -27 -13 -16 -54 -63 -91 -105 -37
-43 -71 -78 -76 -78 -5 0 -9 -6 -9 -13 0 -7 -17 -32 -37 -55 -21 -23 -58 -65
-83 -93 -25 -28 -51 -58 -58 -65 -31 -32 -22 -102 20 -146 17 -17 48 -66 48
-73 0 -3 5 -12 13 -19 8 -8 29 -38 48 -68 18 -29 37 -57 41 -63 15 -19 73
-101 106 -148 18 -26 31 -47 28 -47 -3 0 1 -8 9 -17 34 -38 95 -123 95 -131 0
-5 9 -17 20 -27 11 -10 20 -22 20 -28 0 -5 12 -23 26 -41 14 -17 50 -68 79
-113 29 -45 56 -80 59 -77 3 2 4 1 2 -2 -3 -3 24 -48 60 -99 35 -51 64 -97 64
-103 0 -6 4 -12 9 -14 4 -1 34 -41 67 -88 32 -47 62 -86 66 -88 4 -2 8 -10 8
-17 0 -7 15 -31 33 -52 17 -22 41 -56 52 -76 11 -20 23 -37 27 -37 5 0 8 -9 8
-20 0 -20 -7 -20 -334 -20 l-335 0 -27 25 c-15 14 -24 25 -21 25 3 0 -5 12
-18 26 -14 15 -25 33 -25 40 0 7 -4 14 -8 16 -9 3 -52 63 -143 198 -24 36 -48
68 -54 72 -5 4 -10 11 -10 15 0 4 -15 28 -33 52 -17 24 -32 50 -32 57 0 7 -6
17 -13 21 -15 10 -70 83 -63 83 4 0 -2 8 -12 18 -10 10 -40 54 -67 98 -27 43
-52 81 -55 84 -14 13 -60 80 -55 80 3 0 -6 12 -20 28 -30 31 -56 77 -50 86 3
3 2 4 -2 1 -4 -3 -19 7 -34 21 -27 26 -29 26 -53 11 -36 -24 -90 -83 -213
-233 -61 -75 -120 -134 -134 -135 -10 0 -11 -2 -1 -6 8 -3 2 -15 -18 -36 -30
-33 -41 -45 -120 -138 -25 -29 -60 -69 -78 -88 -17 -19 -32 -39 -32 -43 0 -4
-7 -8 -15 -8 -8 0 -15 -5 -15 -11 0 -12 -45 -69 -116 -144 -28 -30 -50 -56
-48 -57 1 -2 -30 -38 -70 -81 -70 -75 -73 -77 -118 -77 -70 0 -67 16 21 109
18 19 40 46 48 58 9 13 22 23 30 23 8 0 11 5 8 10 -3 6 0 16 7 24 25 26 74 82
158 181 47 55 98 115 115 133 16 19 39 44 50 56 11 12 40 47 65 77 24 29 57
66 72 82 15 15 28 30 28 33 0 6 121 149 183 216 20 22 37 44 37 49 0 5 5 8 12
7 7 -2 12 3 13 10 0 8 11 24 25 35 24 21 41 48 53 89 3 9 -1 22 -9 28 -8 7
-14 17 -14 22 0 5 -18 33 -40 63 -55 75 -82 124 -73 138 4 7 -2 5 -13 -3 -10
-8 -16 -10 -12 -6 5 5 -4 24 -18 43 -14 18 -22 33 -17 33 4 0 -3 7 -15 16 -12
8 -22 21 -22 29 0 7 -3 15 -8 17 -13 5 -72 91 -72 105 0 7 -4 13 -9 13 -5 0
-18 16 -30 35 -11 20 -25 41 -31 48 -6 6 -25 35 -42 62 -18 28 -38 54 -45 58
-7 4 -13 13 -13 19 0 6 -11 26 -25 44 -14 18 -25 40 -25 48 0 9 -6 16 -13 16
-6 0 -18 12 -25 28 -6 15 -21 38 -32 52 -41 52 -110 150 -105 150 6 0 -6 16
-37 51 -10 10 -15 19 -12 19 3 0 -6 13 -19 30 -14 16 -28 39 -32 50 -3 11 -11
20 -16 20 -5 0 -9 6 -9 13 0 6 -12 23 -25 36 -14 12 -23 27 -20 31 3 5 2 10
-2 12 -13 5 -65 78 -56 78 4 0 0 5 -9 11 -10 5 -18 17 -18 24 0 8 -4 15 -9 15
-14 0 -20 38 -7 43 6 3 156 5 334 5 l324 -1 27 -23z"/>
<path d="M523 2713 c-13 -2 -24 -12 -25 -21 -3 -38 4 -66 20 -79 9 -7 14 -13
10 -13 -9 0 142 -213 154 -218 4 -2 8 -8 8 -14 0 -5 6 -15 13 -23 6 -7 27 -38
46 -69 18 -31 37 -56 42 -56 5 0 9 -6 9 -14 0 -8 6 -21 13 -28 7 -7 16 -20 20
-28 4 -8 23 -35 42 -60 19 -25 46 -64 61 -87 14 -24 30 -43 35 -43 5 0 9 -5 9
-10 0 -6 11 -23 25 -38 14 -15 25 -32 25 -39 0 -6 4 -13 8 -15 12 -5 57 -82
54 -91 -1 -5 2 -6 7 -2 6 3 13 -5 17 -19 3 -13 12 -27 19 -30 8 -3 22 -20 31
-37 9 -18 22 -39 28 -45 6 -7 27 -36 46 -64 19 -29 43 -61 53 -71 9 -11 15
-19 12 -19 -3 0 -1 -6 4 -12 44 -53 61 -77 61 -83 0 -4 17 -30 38 -58 20 -28
44 -61 52 -73 66 -98 114 -164 130 -182 11 -12 20 -24 20 -27 0 -5 108 -167
148 -220 12 -16 22 -33 22 -37 0 -5 8 -16 18 -26 28 -30 45 -54 77 -104 17
-27 34 -48 38 -48 5 0 6 -4 3 -9 -3 -5 1 -15 10 -22 13 -11 53 -65 104 -144 8
-12 29 -43 47 -67 18 -25 29 -48 26 -52 -4 -3 1 -6 10 -6 9 0 17 -4 17 -9 0
-5 12 -23 26 -40 l26 -31 175 0 c168 0 207 6 224 33 10 15 -11 68 -24 60 -5
-3 -7 -2 -4 4 6 9 -53 101 -73 113 -5 3 -11 16 -13 28 -2 12 -7 25 -12 29 -4
5 -5 2 -1 -4 4 -7 2 -13 -3 -13 -6 0 -11 9 -11 20 0 11 -5 20 -11 20 -5 0 -8
4 -5 8 3 5 -8 22 -24 37 -17 16 -30 35 -30 42 0 7 -4 13 -8 13 -5 0 -17 16
-28 35 -10 19 -22 35 -26 35 -5 0 -8 7 -8 15 0 7 -8 18 -17 24 -10 5 -15 12
-11 16 3 3 -4 17 -16 30 -30 33 -39 45 -72 96 -16 24 -35 50 -41 57 -7 7 -13
20 -13 28 0 8 -4 14 -9 14 -5 0 -23 23 -41 51 -17 28 -36 56 -41 62 -6 7 -18
24 -27 39 -9 15 -54 79 -100 142 -45 64 -83 119 -84 123 -1 5 -5 13 -10 18
-29 37 -57 76 -82 113 -16 23 -33 42 -39 42 -6 0 -7 3 -4 7 4 3 -1 12 -11 20
-10 9 -11 11 -2 7 8 -4 2 8 -15 27 -16 20 -36 44 -42 55 -7 10 -24 36 -38 57
-14 21 -25 40 -25 43 0 3 -6 12 -12 19 -7 8 -21 25 -30 37 -9 13 -28 37 -41
53 -13 17 -30 41 -37 55 -7 14 -33 51 -57 82 -23 31 -43 60 -43 64 0 4 -18 29
-40 55 -22 26 -40 52 -40 58 0 6 -4 11 -9 11 -5 0 -14 12 -20 28 -11 27 -45
78 -79 117 -9 11 -17 23 -17 26 0 3 -7 13 -15 22 -31 34 -41 47 -34 47 4 0 -1
9 -11 20 -10 11 -23 28 -29 39 -11 18 -66 93 -89 121 -13 15 -17 24 -17 38 0
4 -15 17 -33 30 -31 21 -42 22 -198 21 -90 -1 -174 -4 -186 -6z m417 -116 c30
-45 147 -215 260 -377 395 -567 971 -1395 1119 -1608 58 -84 136 -195 174
-247 37 -53 67 -97 67 -100 0 -3 -82 -5 -182 -4 l-183 1 -375 540 c-206 297
-452 651 -546 787 -95 135 -239 343 -321 461 -83 118 -212 304 -287 412 -76
109 -142 200 -147 204 -25 15 14 19 183 16 l183 -3 55 -82z"/>
</g>
</svg>
